# xmcd CD database file
#
# Track frame offsets:
#	150
#	10664
#	20335
#	34418
#	47523
#	79942
#	89278
#	104345
#	122294
#	133494
#	145429
#	157744
#	173146
#	189728
#	201808
#	225076
#	254432
#
# Disc length: 3742 seconds
#
# Revision: 0
# Processed by: cddbd v1.4PL0 Copyright (c) Steve Scherf et al.
# Submitted via: CDex 1.40Beta9
#
DISCID=d80e9c11
DTITLE=Buddy Guy - Gitanes Blues
DYEAR=1900
DGENRE=Blues
TTITLE0=First Time I Met The Blues
TTITLE1=Slop Around
TTITLE2=I Got A Strange Feeling
TTITLE3=Let Me Love You
TTITLE4=Stone Crazy
TTITLE5=American Bandstand
TTITLE6=Broken Hearted Blues
TTITLE7=Stick Around (Worried Mind)
TTITLE8=I Dig Your Wig
TTITLE9=Ten Year Ago
TTITLE10=Crazy Love
TTITLE11=Leave My Girl Alone
TTITLE12=Every Girl I See
TTITLE13=Buddy's Boogie
TTITLE14=Don't You Know Which Way To Go
TTITLE15=When Buddy Come To Town
TTITLE16=Five Long Years
EXTD=ID3G: 0
EXTT0=
EXTT1=
EXTT2=
EXTT3=
EXTT4=
EXTT5=
EXTT6=
EXTT7=
EXTT8=
EXTT9=
EXTT10=
EXTT11=
EXTT12=
EXTT13=
EXTT14=
EXTT15=
EXTT16=
PLAYORDER=
